<svg xmlns="http://www.w3.org/2000/svg" viewBox="0 0 200 200">
  <!-- Background circle -->
  <circle cx="100" cy="100" r="80" fill="#F97316" opacity="0.1"/>

  <!-- Heart -->
  <path d="M 100 160 C 60 130 40 100 60 75 C 80 50 100 70 100 70 C 100 70 120 50 140 75 C 160 100 140 130 100 160 Z" fill="#F97316"/>

  <!-- Connecting hands/elements inside heart -->
  <circle cx="80" cy="100" r="12" fill="#ffffff"/>
  <circle cx="120" cy="100" r="12" fill="#ffffff"/>
  <path d="M 80 100 Q 100 85 120 100" stroke="#22C55E" stroke-width="3" fill="none" stroke-linecap="round"/>

  <!-- Sparkles around -->
  <circle cx="50" cy="60" r="4" fill="#8B5CF6"/>
  <circle cx="150" cy="60" r="4" fill="#22C55E"/>
  <circle cx="160" cy="140" r="3" fill="#8B5CF6"/>
  <circle cx="40" cy="140" r="3" fill="#22C55E"/>

  <!-- Small stars -->
  <path d="M 70 45 L 72 50 L 77 50 L 73 54 L 75 59 L 70 56 L 65 59 L 67 54 L 63 50 L 68 50 Z" fill="#22C55E" opacity="0.8"/>
  <path d="M 130 45 L 132 50 L 137 50 L 133 54 L 135 59 L 130 56 L 125 59 L 127 54 L 123 50 L 128 50 Z" fill="#8B5CF6" opacity="0.8"/>
</svg>